# xmcd CD database file
#
# Track frame offsets:
#	150
#	32291
#	61125
#	97136
#	124909
#	146628
#	177497
#	202008
#	231115
#
# Disc length: 3507 seconds
#
# Revision: 0
# Processed by: cddbd v1.5.2PL0 Copyright (c) Steve Scherf et al.
# Submitted via: CDex 1.51
#
DISCID=7f0db109
DTITLE=Tommy Cecil and Bill Mays (Steven Sondheim) - Side by Side - Sondheim Duos
DYEAR=2012
DGENRE=Jazz
TTITLE0=Somethings Comming - West Side Story
TTITLE1=Not while im around - Sweeny Todd
TTITLE2=Broadway Baby - Follies
TTITLE3=Every day a little death - A little night music
TTITLE4=Ballad of seeney todd - Sweeny Todd
TTITLE5=small world - gipsy
TTITLE6=Side by Side by Side - Company
TTITLE7=Anywond can shistle - anyone can whistle
TTITLE8=Comedy Tonight - A funny thing happened on the ay to the forum
EXTD=YEAR: 2012
EXTT0=
EXTT1=
EXTT2=
EXTT3=
EXTT4=
EXTT5=
EXTT6=
EXTT7=
EXTT8=
PLAYORDER=
